<mxfile host="app.diagrams.net" modified="2024-06-21T14:27:30.251Z" agent="Mozilla/5.0 (Windows NT 10.0; Win64; x64) AppleWebKit/537.36 (KHTML, like Gecko) Chrome/126.0.0.0 Safari/537.36" etag="IGc7HF4QfKbyNY5aP2Jg" version="24.5.5" type="device">
  <diagram id="C5RBs43oDa-KdzZeNtuy" name="Page-1">
    <mxGraphModel dx="2269" dy="2586" grid="0" gridSize="10" guides="1" tooltips="1" connect="1" arrows="1" fold="1" page="1" pageScale="1" pageWidth="827" pageHeight="1169" math="0" shadow="0">
      <root>
        <mxCell id="WIyWlLk6GJQsqaUBKTNV-0" />
        <mxCell id="WIyWlLk6GJQsqaUBKTNV-1" parent="WIyWlLk6GJQsqaUBKTNV-0" />
        <mxCell id="v5EBdVpUXsmUCi9kOZjm-39" style="edgeStyle=none;rounded=0;orthogonalLoop=1;jettySize=auto;html=1;exitX=0.5;exitY=0;exitDx=0;exitDy=0;entryX=0.5;entryY=1;entryDx=0;entryDy=0;" edge="1" parent="WIyWlLk6GJQsqaUBKTNV-1" source="v5EBdVpUXsmUCi9kOZjm-38" target="v5EBdVpUXsmUCi9kOZjm-25">
          <mxGeometry relative="1" as="geometry" />
        </mxCell>
        <mxCell id="v5EBdVpUXsmUCi9kOZjm-40" style="edgeStyle=none;rounded=0;orthogonalLoop=1;jettySize=auto;html=1;exitX=0.5;exitY=1;exitDx=0;exitDy=0;entryX=0.5;entryY=0;entryDx=0;entryDy=0;" edge="1" parent="WIyWlLk6GJQsqaUBKTNV-1" source="v5EBdVpUXsmUCi9kOZjm-38" target="v5EBdVpUXsmUCi9kOZjm-32">
          <mxGeometry relative="1" as="geometry" />
        </mxCell>
        <mxCell id="v5EBdVpUXsmUCi9kOZjm-38" value="" style="ellipse;whiteSpace=wrap;html=1;aspect=fixed;strokeColor=#FFFFFF;" vertex="1" parent="WIyWlLk6GJQsqaUBKTNV-1">
          <mxGeometry x="1118" y="-338" width="102" height="102" as="geometry" />
        </mxCell>
        <mxCell id="9-7d3YJmFRFUciD0fTXq-8" value="Entry points" style="rounded=0;whiteSpace=wrap;html=1;dashed=1;align=left;verticalAlign=top;" parent="WIyWlLk6GJQsqaUBKTNV-1" vertex="1">
          <mxGeometry x="165.25" y="-116" width="595.5" height="180" as="geometry" />
        </mxCell>
        <mxCell id="9-7d3YJmFRFUciD0fTXq-7" value="Ocr integration modules" style="rounded=0;whiteSpace=wrap;html=1;dashed=1;align=left;verticalAlign=top;" parent="WIyWlLk6GJQsqaUBKTNV-1" vertex="1">
          <mxGeometry x="254.5" y="-587" width="417" height="440" as="geometry" />
        </mxCell>
        <mxCell id="9-7d3YJmFRFUciD0fTXq-4" value="Data processing modules" style="rounded=0;whiteSpace=wrap;html=1;dashed=1;align=left;verticalAlign=top;" parent="WIyWlLk6GJQsqaUBKTNV-1" vertex="1">
          <mxGeometry x="224" y="120" width="451" height="458" as="geometry" />
        </mxCell>
        <mxCell id="HuecpJ5Ijg-PnafFDGNc-4" value="" style="rounded=0;whiteSpace=wrap;html=1;strokeWidth=2;" parent="WIyWlLk6GJQsqaUBKTNV-1" vertex="1">
          <mxGeometry x="1101" y="253" width="76" height="37" as="geometry" />
        </mxCell>
        <mxCell id="HuecpJ5Ijg-PnafFDGNc-7" value="" style="endArrow=classic;html=1;rounded=0;" parent="WIyWlLk6GJQsqaUBKTNV-1" edge="1">
          <mxGeometry relative="1" as="geometry">
            <mxPoint x="1067" y="224" as="sourcePoint" />
            <mxPoint x="1227" y="224" as="targetPoint" />
          </mxGeometry>
        </mxCell>
        <mxCell id="HuecpJ5Ijg-PnafFDGNc-10" value="" style="endArrow=classic;html=1;rounded=0;" parent="WIyWlLk6GJQsqaUBKTNV-1" edge="1">
          <mxGeometry relative="1" as="geometry">
            <mxPoint x="1067" y="224" as="sourcePoint" />
            <mxPoint x="1067" y="320" as="targetPoint" />
          </mxGeometry>
        </mxCell>
        <mxCell id="HuecpJ5Ijg-PnafFDGNc-13" value="x" style="text;html=1;align=center;verticalAlign=middle;whiteSpace=wrap;rounded=0;" parent="WIyWlLk6GJQsqaUBKTNV-1" vertex="1">
          <mxGeometry x="1196" y="197" width="60" height="30" as="geometry" />
        </mxCell>
        <mxCell id="HuecpJ5Ijg-PnafFDGNc-15" value="y" style="text;html=1;align=center;verticalAlign=middle;whiteSpace=wrap;rounded=0;" parent="WIyWlLk6GJQsqaUBKTNV-1" vertex="1">
          <mxGeometry x="1025" y="299" width="60" height="30" as="geometry" />
        </mxCell>
        <mxCell id="HuecpJ5Ijg-PnafFDGNc-16" value="(x1,y1)" style="text;html=1;align=center;verticalAlign=middle;whiteSpace=wrap;rounded=0;" parent="WIyWlLk6GJQsqaUBKTNV-1" vertex="1">
          <mxGeometry x="1065" y="225" width="60" height="30" as="geometry" />
        </mxCell>
        <mxCell id="HuecpJ5Ijg-PnafFDGNc-18" value="" style="ellipse;whiteSpace=wrap;html=1;aspect=fixed;fillColor=#000000;" parent="WIyWlLk6GJQsqaUBKTNV-1" vertex="1">
          <mxGeometry x="1099" y="251" width="4" height="4" as="geometry" />
        </mxCell>
        <mxCell id="HuecpJ5Ijg-PnafFDGNc-19" value="" style="ellipse;whiteSpace=wrap;html=1;aspect=fixed;fillColor=#000000;" parent="WIyWlLk6GJQsqaUBKTNV-1" vertex="1">
          <mxGeometry x="1175" y="251" width="4" height="4" as="geometry" />
        </mxCell>
        <mxCell id="HuecpJ5Ijg-PnafFDGNc-20" value="" style="ellipse;whiteSpace=wrap;html=1;aspect=fixed;fillColor=#000000;" parent="WIyWlLk6GJQsqaUBKTNV-1" vertex="1">
          <mxGeometry x="1099" y="288" width="4" height="4" as="geometry" />
        </mxCell>
        <mxCell id="HuecpJ5Ijg-PnafFDGNc-21" value="" style="ellipse;whiteSpace=wrap;html=1;aspect=fixed;fillColor=#000000;" parent="WIyWlLk6GJQsqaUBKTNV-1" vertex="1">
          <mxGeometry x="1175" y="288" width="4" height="4" as="geometry" />
        </mxCell>
        <mxCell id="HuecpJ5Ijg-PnafFDGNc-22" value="(x2,y1)" style="text;html=1;align=center;verticalAlign=middle;whiteSpace=wrap;rounded=0;" parent="WIyWlLk6GJQsqaUBKTNV-1" vertex="1">
          <mxGeometry x="1155" y="225" width="60" height="30" as="geometry" />
        </mxCell>
        <mxCell id="HuecpJ5Ijg-PnafFDGNc-23" value="(x1,y2)" style="text;html=1;align=center;verticalAlign=middle;whiteSpace=wrap;rounded=0;" parent="WIyWlLk6GJQsqaUBKTNV-1" vertex="1">
          <mxGeometry x="1065" y="285" width="60" height="30" as="geometry" />
        </mxCell>
        <mxCell id="HuecpJ5Ijg-PnafFDGNc-25" value="(x2,y2)" style="text;html=1;align=center;verticalAlign=middle;whiteSpace=wrap;rounded=0;" parent="WIyWlLk6GJQsqaUBKTNV-1" vertex="1">
          <mxGeometry x="1155" y="285" width="60" height="30" as="geometry" />
        </mxCell>
        <mxCell id="HuecpJ5Ijg-PnafFDGNc-26" value="(0,0)" style="text;html=1;align=center;verticalAlign=middle;whiteSpace=wrap;rounded=0;" parent="WIyWlLk6GJQsqaUBKTNV-1" vertex="1">
          <mxGeometry x="1031" y="197" width="60" height="30" as="geometry" />
        </mxCell>
        <mxCell id="HuecpJ5Ijg-PnafFDGNc-27" value="" style="ellipse;whiteSpace=wrap;html=1;aspect=fixed;fillColor=#000000;" parent="WIyWlLk6GJQsqaUBKTNV-1" vertex="1">
          <mxGeometry x="1065" y="223" width="4" height="4" as="geometry" />
        </mxCell>
        <mxCell id="v5EBdVpUXsmUCi9kOZjm-20" style="edgeStyle=orthogonalEdgeStyle;rounded=0;orthogonalLoop=1;jettySize=auto;html=1;exitX=0.498;exitY=0.986;exitDx=0;exitDy=0;entryX=0.75;entryY=0;entryDx=0;entryDy=0;exitPerimeter=0;" edge="1" parent="WIyWlLk6GJQsqaUBKTNV-1" source="9-7d3YJmFRFUciD0fTXq-3" target="HuecpJ5Ijg-PnafFDGNc-0">
          <mxGeometry relative="1" as="geometry">
            <Array as="points">
              <mxPoint x="567" y="-361" />
              <mxPoint x="498" y="-361" />
            </Array>
          </mxGeometry>
        </mxCell>
        <mxCell id="9-7d3YJmFRFUciD0fTXq-0" value="OcrTools" style="swimlane;fontStyle=0;childLayout=stackLayout;horizontal=1;startSize=30;horizontalStack=0;resizeParent=1;resizeParentMax=0;resizeLast=0;collapsible=1;marginBottom=0;whiteSpace=wrap;html=1;" parent="WIyWlLk6GJQsqaUBKTNV-1" vertex="1">
          <mxGeometry x="497" y="-552" width="140" height="150" as="geometry" />
        </mxCell>
        <mxCell id="9-7d3YJmFRFUciD0fTXq-1" value="get_time()" style="text;strokeColor=none;fillColor=none;align=left;verticalAlign=middle;spacingLeft=4;spacingRight=4;overflow=hidden;points=[[0,0.5],[1,0.5]];portConstraint=eastwest;rotatable=0;whiteSpace=wrap;html=1;" parent="9-7d3YJmFRFUciD0fTXq-0" vertex="1">
          <mxGeometry y="30" width="140" height="30" as="geometry" />
        </mxCell>
        <mxCell id="9-7d3YJmFRFUciD0fTXq-34" value="get_text_tesseract()" style="text;strokeColor=none;fillColor=none;align=left;verticalAlign=middle;spacingLeft=4;spacingRight=4;overflow=hidden;points=[[0,0.5],[1,0.5]];portConstraint=eastwest;rotatable=0;whiteSpace=wrap;html=1;" parent="9-7d3YJmFRFUciD0fTXq-0" vertex="1">
          <mxGeometry y="60" width="140" height="30" as="geometry" />
        </mxCell>
        <mxCell id="9-7d3YJmFRFUciD0fTXq-2" value="get_text_easyocr()" style="text;strokeColor=none;fillColor=none;align=left;verticalAlign=middle;spacingLeft=4;spacingRight=4;overflow=hidden;points=[[0,0.5],[1,0.5]];portConstraint=eastwest;rotatable=0;whiteSpace=wrap;html=1;" parent="9-7d3YJmFRFUciD0fTXq-0" vertex="1">
          <mxGeometry y="90" width="140" height="30" as="geometry" />
        </mxCell>
        <mxCell id="9-7d3YJmFRFUciD0fTXq-3" value="get_text_keras()" style="text;strokeColor=none;fillColor=none;align=left;verticalAlign=middle;spacingLeft=4;spacingRight=4;overflow=hidden;points=[[0,0.5],[1,0.5]];portConstraint=eastwest;rotatable=0;whiteSpace=wrap;html=1;" parent="9-7d3YJmFRFUciD0fTXq-0" vertex="1">
          <mxGeometry y="120" width="140" height="30" as="geometry" />
        </mxCell>
        <mxCell id="v5EBdVpUXsmUCi9kOZjm-21" style="edgeStyle=orthogonalEdgeStyle;rounded=0;orthogonalLoop=1;jettySize=auto;html=1;exitX=0.461;exitY=0.958;exitDx=0;exitDy=0;exitPerimeter=0;" edge="1" parent="WIyWlLk6GJQsqaUBKTNV-1" source="9-7d3YJmFRFUciD0fTXq-41">
          <mxGeometry relative="1" as="geometry">
            <mxPoint x="423" y="-322" as="targetPoint" />
            <Array as="points">
              <mxPoint x="363" y="-362" />
              <mxPoint x="423" y="-362" />
            </Array>
          </mxGeometry>
        </mxCell>
        <mxCell id="9-7d3YJmFRFUciD0fTXq-37" value="&lt;div&gt;&amp;lt;enumeration&amp;gt;&lt;/div&gt;OcrToolsSelector" style="swimlane;fontStyle=0;childLayout=stackLayout;horizontal=1;startSize=30;horizontalStack=0;resizeParent=1;resizeParentMax=0;resizeLast=0;collapsible=1;marginBottom=0;whiteSpace=wrap;html=1;" parent="WIyWlLk6GJQsqaUBKTNV-1" vertex="1">
          <mxGeometry x="298" y="-552" width="140" height="150" as="geometry" />
        </mxCell>
        <mxCell id="9-7d3YJmFRFUciD0fTXq-38" value="tesseract" style="text;strokeColor=none;fillColor=none;align=left;verticalAlign=middle;spacingLeft=4;spacingRight=4;overflow=hidden;points=[[0,0.5],[1,0.5]];portConstraint=eastwest;rotatable=0;whiteSpace=wrap;html=1;" parent="9-7d3YJmFRFUciD0fTXq-37" vertex="1">
          <mxGeometry y="30" width="140" height="30" as="geometry" />
        </mxCell>
        <mxCell id="9-7d3YJmFRFUciD0fTXq-44" value="easyocr" style="text;strokeColor=none;fillColor=none;align=left;verticalAlign=middle;spacingLeft=4;spacingRight=4;overflow=hidden;points=[[0,0.5],[1,0.5]];portConstraint=eastwest;rotatable=0;whiteSpace=wrap;html=1;" parent="9-7d3YJmFRFUciD0fTXq-37" vertex="1">
          <mxGeometry y="60" width="140" height="30" as="geometry" />
        </mxCell>
        <mxCell id="9-7d3YJmFRFUciD0fTXq-45" value="keras_ocr" style="text;strokeColor=none;fillColor=none;align=left;verticalAlign=middle;spacingLeft=4;spacingRight=4;overflow=hidden;points=[[0,0.5],[1,0.5]];portConstraint=eastwest;rotatable=0;whiteSpace=wrap;html=1;" parent="9-7d3YJmFRFUciD0fTXq-37" vertex="1">
          <mxGeometry y="90" width="140" height="30" as="geometry" />
        </mxCell>
        <mxCell id="9-7d3YJmFRFUciD0fTXq-41" value="default" style="text;strokeColor=none;fillColor=none;align=left;verticalAlign=middle;spacingLeft=4;spacingRight=4;overflow=hidden;points=[[0,0.5],[1,0.5]];portConstraint=eastwest;rotatable=0;whiteSpace=wrap;html=1;" parent="9-7d3YJmFRFUciD0fTXq-37" vertex="1">
          <mxGeometry y="120" width="140" height="30" as="geometry" />
        </mxCell>
        <mxCell id="9-7d3YJmFRFUciD0fTXq-46" value="BboxProcessing" style="swimlane;fontStyle=0;childLayout=stackLayout;horizontal=1;startSize=30;horizontalStack=0;resizeParent=1;resizeParentMax=0;resizeLast=0;collapsible=1;marginBottom=0;whiteSpace=wrap;html=1;" parent="WIyWlLk6GJQsqaUBKTNV-1" vertex="1">
          <mxGeometry x="374.5" y="381" width="177" height="180" as="geometry" />
        </mxCell>
        <mxCell id="9-7d3YJmFRFUciD0fTXq-51" value="get_text_detected()" style="text;strokeColor=none;fillColor=none;align=left;verticalAlign=middle;spacingLeft=4;spacingRight=4;overflow=hidden;points=[[0,0.5],[1,0.5]];portConstraint=eastwest;rotatable=0;whiteSpace=wrap;html=1;" parent="9-7d3YJmFRFUciD0fTXq-46" vertex="1">
          <mxGeometry y="30" width="177" height="30" as="geometry" />
        </mxCell>
        <mxCell id="9-7d3YJmFRFUciD0fTXq-52" value="get_matching_bboxes()" style="text;strokeColor=none;fillColor=none;align=left;verticalAlign=middle;spacingLeft=4;spacingRight=4;overflow=hidden;points=[[0,0.5],[1,0.5]];portConstraint=eastwest;rotatable=0;whiteSpace=wrap;html=1;" parent="9-7d3YJmFRFUciD0fTXq-46" vertex="1">
          <mxGeometry y="60" width="177" height="30" as="geometry" />
        </mxCell>
        <mxCell id="v5EBdVpUXsmUCi9kOZjm-50" value="highlight_matching_bboxes()" style="text;strokeColor=none;fillColor=none;align=left;verticalAlign=middle;spacingLeft=4;spacingRight=4;overflow=hidden;points=[[0,0.5],[1,0.5]];portConstraint=eastwest;rotatable=0;whiteSpace=wrap;html=1;" vertex="1" parent="9-7d3YJmFRFUciD0fTXq-46">
          <mxGeometry y="90" width="177" height="30" as="geometry" />
        </mxCell>
        <mxCell id="v5EBdVpUXsmUCi9kOZjm-53" value="get_bbox_by_num()" style="text;strokeColor=none;fillColor=none;align=left;verticalAlign=middle;spacingLeft=4;spacingRight=4;overflow=hidden;points=[[0,0.5],[1,0.5]];portConstraint=eastwest;rotatable=0;whiteSpace=wrap;html=1;" vertex="1" parent="9-7d3YJmFRFUciD0fTXq-46">
          <mxGeometry y="120" width="177" height="30" as="geometry" />
        </mxCell>
        <mxCell id="9-7d3YJmFRFUciD0fTXq-53" value="get_bbox()" style="text;strokeColor=none;fillColor=none;align=left;verticalAlign=middle;spacingLeft=4;spacingRight=4;overflow=hidden;points=[[0,0.5],[1,0.5]];portConstraint=eastwest;rotatable=0;whiteSpace=wrap;html=1;" parent="9-7d3YJmFRFUciD0fTXq-46" vertex="1">
          <mxGeometry y="150" width="177" height="30" as="geometry" />
        </mxCell>
        <mxCell id="9-7d3YJmFRFUciD0fTXq-54" value="Click" style="swimlane;fontStyle=0;childLayout=stackLayout;horizontal=1;startSize=30;horizontalStack=0;resizeParent=1;resizeParentMax=0;resizeLast=0;collapsible=1;marginBottom=0;whiteSpace=wrap;html=1;" parent="WIyWlLk6GJQsqaUBKTNV-1" vertex="1">
          <mxGeometry x="514" y="172" width="140" height="120" as="geometry" />
        </mxCell>
        <mxCell id="9-7d3YJmFRFUciD0fTXq-55" value="by_text()" style="text;strokeColor=none;fillColor=none;align=left;verticalAlign=middle;spacingLeft=4;spacingRight=4;overflow=hidden;points=[[0,0.5],[1,0.5]];portConstraint=eastwest;rotatable=0;whiteSpace=wrap;html=1;" parent="9-7d3YJmFRFUciD0fTXq-54" vertex="1">
          <mxGeometry y="30" width="140" height="30" as="geometry" />
        </mxCell>
        <mxCell id="v5EBdVpUXsmUCi9kOZjm-48" value="highlight_variants()" style="text;strokeColor=none;fillColor=none;align=left;verticalAlign=middle;spacingLeft=4;spacingRight=4;overflow=hidden;points=[[0,0.5],[1,0.5]];portConstraint=eastwest;rotatable=0;whiteSpace=wrap;html=1;" vertex="1" parent="9-7d3YJmFRFUciD0fTXq-54">
          <mxGeometry y="60" width="140" height="30" as="geometry" />
        </mxCell>
        <mxCell id="v5EBdVpUXsmUCi9kOZjm-49" value="variant_num()" style="text;strokeColor=none;fillColor=none;align=left;verticalAlign=middle;spacingLeft=4;spacingRight=4;overflow=hidden;points=[[0,0.5],[1,0.5]];portConstraint=eastwest;rotatable=0;whiteSpace=wrap;html=1;" vertex="1" parent="9-7d3YJmFRFUciD0fTXq-54">
          <mxGeometry y="90" width="140" height="30" as="geometry" />
        </mxCell>
        <mxCell id="v5EBdVpUXsmUCi9kOZjm-0" value="ComparingOcrTools" style="swimlane;fontStyle=0;childLayout=stackLayout;horizontal=1;startSize=30;horizontalStack=0;resizeParent=1;resizeParentMax=0;resizeLast=0;collapsible=1;marginBottom=0;whiteSpace=wrap;html=1;" vertex="1" parent="WIyWlLk6GJQsqaUBKTNV-1">
          <mxGeometry x="179" y="-79.5" width="189" height="90" as="geometry" />
        </mxCell>
        <mxCell id="v5EBdVpUXsmUCi9kOZjm-1" value="process_images_from_folder()" style="text;strokeColor=none;fillColor=none;align=left;verticalAlign=middle;spacingLeft=4;spacingRight=4;overflow=hidden;points=[[0,0.5],[1,0.5]];portConstraint=eastwest;rotatable=0;whiteSpace=wrap;html=1;" vertex="1" parent="v5EBdVpUXsmUCi9kOZjm-0">
          <mxGeometry y="30" width="189" height="30" as="geometry" />
        </mxCell>
        <mxCell id="v5EBdVpUXsmUCi9kOZjm-2" value="process_images_from_dataset()" style="text;strokeColor=none;fillColor=none;align=left;verticalAlign=middle;spacingLeft=4;spacingRight=4;overflow=hidden;points=[[0,0.5],[1,0.5]];portConstraint=eastwest;rotatable=0;whiteSpace=wrap;html=1;" vertex="1" parent="v5EBdVpUXsmUCi9kOZjm-0">
          <mxGeometry y="60" width="189" height="30" as="geometry" />
        </mxCell>
        <mxCell id="v5EBdVpUXsmUCi9kOZjm-7" value="IntegrationWithLackey" style="swimlane;fontStyle=0;childLayout=stackLayout;horizontal=1;startSize=30;horizontalStack=0;resizeParent=1;resizeParentMax=0;resizeLast=0;collapsible=1;marginBottom=0;whiteSpace=wrap;html=1;" vertex="1" parent="WIyWlLk6GJQsqaUBKTNV-1">
          <mxGeometry x="559" y="-79.5" width="189" height="90" as="geometry" />
        </mxCell>
        <mxCell id="v5EBdVpUXsmUCi9kOZjm-46" value="tesseract_example()" style="text;strokeColor=none;fillColor=none;align=left;verticalAlign=middle;spacingLeft=4;spacingRight=4;overflow=hidden;points=[[0,0.5],[1,0.5]];portConstraint=eastwest;rotatable=0;whiteSpace=wrap;html=1;" vertex="1" parent="v5EBdVpUXsmUCi9kOZjm-7">
          <mxGeometry y="30" width="189" height="30" as="geometry" />
        </mxCell>
        <mxCell id="v5EBdVpUXsmUCi9kOZjm-8" value="real_time_tesseract_example()" style="text;strokeColor=none;fillColor=none;align=left;verticalAlign=middle;spacingLeft=4;spacingRight=4;overflow=hidden;points=[[0,0.5],[1,0.5]];portConstraint=eastwest;rotatable=0;whiteSpace=wrap;html=1;" vertex="1" parent="v5EBdVpUXsmUCi9kOZjm-7">
          <mxGeometry y="60" width="189" height="30" as="geometry" />
        </mxCell>
        <mxCell id="v5EBdVpUXsmUCi9kOZjm-14" value="AnalyzeTools" style="swimlane;fontStyle=0;childLayout=stackLayout;horizontal=1;startSize=30;horizontalStack=0;resizeParent=1;resizeParentMax=0;resizeLast=0;collapsible=1;marginBottom=0;whiteSpace=wrap;html=1;" vertex="1" parent="WIyWlLk6GJQsqaUBKTNV-1">
          <mxGeometry x="306" y="168" width="140" height="150" as="geometry" />
        </mxCell>
        <mxCell id="v5EBdVpUXsmUCi9kOZjm-4" value="process_image()" style="text;strokeColor=none;fillColor=none;align=left;verticalAlign=middle;spacingLeft=4;spacingRight=4;overflow=hidden;points=[[0,0.5],[1,0.5]];portConstraint=eastwest;rotatable=0;whiteSpace=wrap;html=1;" vertex="1" parent="v5EBdVpUXsmUCi9kOZjm-14">
          <mxGeometry y="30" width="140" height="30" as="geometry" />
        </mxCell>
        <mxCell id="v5EBdVpUXsmUCi9kOZjm-3" value="result_string()" style="text;strokeColor=none;fillColor=none;align=left;verticalAlign=middle;spacingLeft=4;spacingRight=4;overflow=hidden;points=[[0,0.5],[1,0.5]];portConstraint=eastwest;rotatable=0;whiteSpace=wrap;html=1;" vertex="1" parent="v5EBdVpUXsmUCi9kOZjm-14">
          <mxGeometry y="60" width="140" height="30" as="geometry" />
        </mxCell>
        <mxCell id="v5EBdVpUXsmUCi9kOZjm-5" value="get_accuracy()" style="text;strokeColor=none;fillColor=none;align=left;verticalAlign=middle;spacingLeft=4;spacingRight=4;overflow=hidden;points=[[0,0.5],[1,0.5]];portConstraint=eastwest;rotatable=0;whiteSpace=wrap;html=1;" vertex="1" parent="v5EBdVpUXsmUCi9kOZjm-14">
          <mxGeometry y="90" width="140" height="30" as="geometry" />
        </mxCell>
        <mxCell id="v5EBdVpUXsmUCi9kOZjm-6" value="save_result_plot()" style="text;strokeColor=none;fillColor=none;align=left;verticalAlign=middle;spacingLeft=4;spacingRight=4;overflow=hidden;points=[[0,0.5],[1,0.5]];portConstraint=eastwest;rotatable=0;whiteSpace=wrap;html=1;" vertex="1" parent="v5EBdVpUXsmUCi9kOZjm-14">
          <mxGeometry y="120" width="140" height="30" as="geometry" />
        </mxCell>
        <mxCell id="v5EBdVpUXsmUCi9kOZjm-16" style="edgeStyle=orthogonalEdgeStyle;rounded=0;orthogonalLoop=1;jettySize=auto;html=1;exitX=0.5;exitY=0;exitDx=0;exitDy=0;entryX=0.519;entryY=0.997;entryDx=0;entryDy=0;entryPerimeter=0;" edge="1" parent="WIyWlLk6GJQsqaUBKTNV-1" source="v5EBdVpUXsmUCi9kOZjm-14" target="v5EBdVpUXsmUCi9kOZjm-2">
          <mxGeometry relative="1" as="geometry" />
        </mxCell>
        <mxCell id="v5EBdVpUXsmUCi9kOZjm-17" style="rounded=0;orthogonalLoop=1;jettySize=auto;html=1;exitX=0.5;exitY=0;exitDx=0;exitDy=0;entryX=0.236;entryY=1.025;entryDx=0;entryDy=0;entryPerimeter=0;edgeStyle=orthogonalEdgeStyle;" edge="1" parent="WIyWlLk6GJQsqaUBKTNV-1" source="9-7d3YJmFRFUciD0fTXq-46" target="v5EBdVpUXsmUCi9kOZjm-8">
          <mxGeometry relative="1" as="geometry">
            <Array as="points">
              <mxPoint x="483" y="87" />
              <mxPoint x="604" y="87" />
            </Array>
          </mxGeometry>
        </mxCell>
        <mxCell id="v5EBdVpUXsmUCi9kOZjm-18" style="edgeStyle=orthogonalEdgeStyle;rounded=0;orthogonalLoop=1;jettySize=auto;html=1;exitX=0.5;exitY=0;exitDx=0;exitDy=0;entryX=0.488;entryY=1.025;entryDx=0;entryDy=0;entryPerimeter=0;" edge="1" parent="WIyWlLk6GJQsqaUBKTNV-1" source="9-7d3YJmFRFUciD0fTXq-54" target="v5EBdVpUXsmUCi9kOZjm-8">
          <mxGeometry relative="1" as="geometry">
            <Array as="points">
              <mxPoint x="571" y="172" />
              <mxPoint x="571" y="105" />
              <mxPoint x="651" y="105" />
            </Array>
          </mxGeometry>
        </mxCell>
        <mxCell id="HuecpJ5Ijg-PnafFDGNc-0" value="Ocr" style="swimlane;fontStyle=0;childLayout=stackLayout;horizontal=1;startSize=30;horizontalStack=0;resizeParent=1;resizeParentMax=0;resizeLast=0;collapsible=1;marginBottom=0;whiteSpace=wrap;html=1;" parent="WIyWlLk6GJQsqaUBKTNV-1" vertex="1">
          <mxGeometry x="371" y="-320" width="171" height="160" as="geometry" />
        </mxCell>
        <mxCell id="HuecpJ5Ijg-PnafFDGNc-1" value="OCR" style="text;strokeColor=none;fillColor=none;align=left;verticalAlign=middle;spacingLeft=4;spacingRight=4;overflow=hidden;points=[[0,0.5],[1,0.5]];portConstraint=eastwest;rotatable=0;whiteSpace=wrap;html=1;" parent="HuecpJ5Ijg-PnafFDGNc-0" vertex="1">
          <mxGeometry y="30" width="171" height="30" as="geometry" />
        </mxCell>
        <mxCell id="9-7d3YJmFRFUciD0fTXq-12" value="" style="line;strokeWidth=1;html=1;spacingTop=0;spacing=1;" parent="HuecpJ5Ijg-PnafFDGNc-0" vertex="1">
          <mxGeometry y="60" width="171" height="10" as="geometry" />
        </mxCell>
        <mxCell id="HuecpJ5Ijg-PnafFDGNc-2" value="get_text()" style="text;strokeColor=none;fillColor=none;align=left;verticalAlign=middle;spacingLeft=4;spacingRight=4;overflow=hidden;points=[[0,0.5],[1,0.5]];portConstraint=eastwest;rotatable=0;whiteSpace=wrap;html=1;" parent="HuecpJ5Ijg-PnafFDGNc-0" vertex="1">
          <mxGeometry y="70" width="171" height="30" as="geometry" />
        </mxCell>
        <mxCell id="v5EBdVpUXsmUCi9kOZjm-43" value="get_text_explain()" style="text;strokeColor=none;fillColor=none;align=left;verticalAlign=middle;spacingLeft=4;spacingRight=4;overflow=hidden;points=[[0,0.5],[1,0.5]];portConstraint=eastwest;rotatable=0;whiteSpace=wrap;html=1;" vertex="1" parent="HuecpJ5Ijg-PnafFDGNc-0">
          <mxGeometry y="100" width="171" height="30" as="geometry" />
        </mxCell>
        <mxCell id="9-7d3YJmFRFUciD0fTXq-13" value="get_and_print_dataframes()" style="text;strokeColor=none;fillColor=none;align=left;verticalAlign=middle;spacingLeft=4;spacingRight=4;overflow=hidden;points=[[0,0.5],[1,0.5]];portConstraint=eastwest;rotatable=0;whiteSpace=wrap;html=1;" parent="HuecpJ5Ijg-PnafFDGNc-0" vertex="1">
          <mxGeometry y="130" width="171" height="30" as="geometry" />
        </mxCell>
        <mxCell id="v5EBdVpUXsmUCi9kOZjm-22" style="edgeStyle=orthogonalEdgeStyle;rounded=0;orthogonalLoop=1;jettySize=auto;html=1;exitX=0;exitY=0.5;exitDx=0;exitDy=0;entryX=0.5;entryY=0;entryDx=0;entryDy=0;" edge="1" parent="WIyWlLk6GJQsqaUBKTNV-1" source="9-7d3YJmFRFUciD0fTXq-13" target="v5EBdVpUXsmUCi9kOZjm-0">
          <mxGeometry relative="1" as="geometry">
            <Array as="points">
              <mxPoint x="371" y="-250" />
              <mxPoint x="273" y="-250" />
            </Array>
          </mxGeometry>
        </mxCell>
        <mxCell id="v5EBdVpUXsmUCi9kOZjm-23" style="edgeStyle=orthogonalEdgeStyle;rounded=0;orthogonalLoop=1;jettySize=auto;html=1;exitX=1;exitY=0.5;exitDx=0;exitDy=0;entryX=0.5;entryY=0;entryDx=0;entryDy=0;" edge="1" parent="WIyWlLk6GJQsqaUBKTNV-1" source="9-7d3YJmFRFUciD0fTXq-13" target="v5EBdVpUXsmUCi9kOZjm-7">
          <mxGeometry relative="1" as="geometry">
            <Array as="points">
              <mxPoint x="542" y="-246" />
              <mxPoint x="654" y="-246" />
            </Array>
          </mxGeometry>
        </mxCell>
        <mxCell id="v5EBdVpUXsmUCi9kOZjm-24" value="Пользователь" style="shape=umlActor;verticalLabelPosition=bottom;verticalAlign=top;html=1;outlineConnect=0;" vertex="1" parent="WIyWlLk6GJQsqaUBKTNV-1">
          <mxGeometry x="1155" y="-326" width="30" height="60" as="geometry" />
        </mxCell>
        <mxCell id="v5EBdVpUXsmUCi9kOZjm-35" style="rounded=0;orthogonalLoop=1;jettySize=auto;html=1;exitX=0;exitY=0;exitDx=0;exitDy=0;entryX=0.5;entryY=1;entryDx=0;entryDy=0;" edge="1" parent="WIyWlLk6GJQsqaUBKTNV-1" source="v5EBdVpUXsmUCi9kOZjm-25" target="v5EBdVpUXsmUCi9kOZjm-26">
          <mxGeometry relative="1" as="geometry" />
        </mxCell>
        <mxCell id="v5EBdVpUXsmUCi9kOZjm-36" style="rounded=0;orthogonalLoop=1;jettySize=auto;html=1;exitX=1;exitY=0;exitDx=0;exitDy=0;entryX=0.5;entryY=1;entryDx=0;entryDy=0;" edge="1" parent="WIyWlLk6GJQsqaUBKTNV-1" source="v5EBdVpUXsmUCi9kOZjm-25" target="v5EBdVpUXsmUCi9kOZjm-27">
          <mxGeometry relative="1" as="geometry" />
        </mxCell>
        <mxCell id="v5EBdVpUXsmUCi9kOZjm-25" value="Сравнительный анализ" style="ellipse;whiteSpace=wrap;html=1;dashed=1;" vertex="1" parent="WIyWlLk6GJQsqaUBKTNV-1">
          <mxGeometry x="1094" y="-450" width="150" height="80" as="geometry" />
        </mxCell>
        <mxCell id="v5EBdVpUXsmUCi9kOZjm-26" value="Запуск сравнительного анализа по датасету" style="ellipse;whiteSpace=wrap;html=1;" vertex="1" parent="WIyWlLk6GJQsqaUBKTNV-1">
          <mxGeometry x="1009" y="-549" width="154" height="80" as="geometry" />
        </mxCell>
        <mxCell id="v5EBdVpUXsmUCi9kOZjm-27" value="Запуск сравнительного анализа по директории" style="ellipse;whiteSpace=wrap;html=1;" vertex="1" parent="WIyWlLk6GJQsqaUBKTNV-1">
          <mxGeometry x="1179" y="-549" width="156" height="81" as="geometry" />
        </mxCell>
        <mxCell id="v5EBdVpUXsmUCi9kOZjm-30" value="Запуск автоматизированного взаимодействия с приложением" style="ellipse;whiteSpace=wrap;html=1;" vertex="1" parent="WIyWlLk6GJQsqaUBKTNV-1">
          <mxGeometry x="992" y="-89.5" width="154" height="80" as="geometry" />
        </mxCell>
        <mxCell id="v5EBdVpUXsmUCi9kOZjm-41" style="edgeStyle=none;rounded=0;orthogonalLoop=1;jettySize=auto;html=1;exitX=0;exitY=1;exitDx=0;exitDy=0;entryX=0.5;entryY=0;entryDx=0;entryDy=0;" edge="1" parent="WIyWlLk6GJQsqaUBKTNV-1" source="v5EBdVpUXsmUCi9kOZjm-32" target="v5EBdVpUXsmUCi9kOZjm-30">
          <mxGeometry relative="1" as="geometry" />
        </mxCell>
        <mxCell id="v5EBdVpUXsmUCi9kOZjm-42" style="edgeStyle=none;rounded=0;orthogonalLoop=1;jettySize=auto;html=1;exitX=0.5;exitY=1;exitDx=0;exitDy=0;entryX=0.5;entryY=0;entryDx=0;entryDy=0;" edge="1" parent="WIyWlLk6GJQsqaUBKTNV-1" source="v5EBdVpUXsmUCi9kOZjm-32" target="v5EBdVpUXsmUCi9kOZjm-33">
          <mxGeometry relative="1" as="geometry" />
        </mxCell>
        <mxCell id="v5EBdVpUXsmUCi9kOZjm-45" style="edgeStyle=none;rounded=0;orthogonalLoop=1;jettySize=auto;html=1;exitX=1;exitY=1;exitDx=0;exitDy=0;entryX=0.5;entryY=0;entryDx=0;entryDy=0;" edge="1" parent="WIyWlLk6GJQsqaUBKTNV-1" source="v5EBdVpUXsmUCi9kOZjm-32" target="v5EBdVpUXsmUCi9kOZjm-44">
          <mxGeometry relative="1" as="geometry" />
        </mxCell>
        <mxCell id="v5EBdVpUXsmUCi9kOZjm-32" value="Автоматизация взаимодействия с приложением" style="ellipse;whiteSpace=wrap;html=1;dashed=1;" vertex="1" parent="WIyWlLk6GJQsqaUBKTNV-1">
          <mxGeometry x="1094" y="-206" width="150" height="80" as="geometry" />
        </mxCell>
        <mxCell id="v5EBdVpUXsmUCi9kOZjm-33" value="Выбор используемой библиотеки Ocr" style="ellipse;whiteSpace=wrap;html=1;" vertex="1" parent="WIyWlLk6GJQsqaUBKTNV-1">
          <mxGeometry x="1092" y="-6" width="154" height="80" as="geometry" />
        </mxCell>
        <mxCell id="v5EBdVpUXsmUCi9kOZjm-44" value="Запуск интерактивного взаимодействия с приложением" style="ellipse;whiteSpace=wrap;html=1;" vertex="1" parent="WIyWlLk6GJQsqaUBKTNV-1">
          <mxGeometry x="1188" y="-92" width="154" height="80" as="geometry" />
        </mxCell>
        <mxCell id="v5EBdVpUXsmUCi9kOZjm-52" style="edgeStyle=orthogonalEdgeStyle;rounded=0;orthogonalLoop=1;jettySize=auto;html=1;exitX=0.25;exitY=0;exitDx=0;exitDy=0;" edge="1" parent="WIyWlLk6GJQsqaUBKTNV-1" source="9-7d3YJmFRFUciD0fTXq-46" target="v5EBdVpUXsmUCi9kOZjm-6">
          <mxGeometry relative="1" as="geometry">
            <Array as="points">
              <mxPoint x="419" y="355" />
              <mxPoint x="376" y="355" />
            </Array>
          </mxGeometry>
        </mxCell>
      </root>
    </mxGraphModel>
  </diagram>
</mxfile>
